<?xml version="1.0" standalone="no"?>
<!DOCTYPE svg PUBLIC "-//W3C//DTD SVG 20010904//EN"
 "http://www.w3.org/TR/2001/REC-SVG-20010904/DTD/svg10.dtd">
<svg version="1.0" xmlns="http://www.w3.org/2000/svg"
 width="602.000000pt" height="272.000000pt" viewBox="0 0 602.000000 272.000000"
 preserveAspectRatio="xMidYMid meet">

<g transform="translate(0.000000,272.000000) scale(0.100000,-0.100000)"
fill="#000000" stroke="none">
<path d="M2700 2503 c-113 -11 -278 -38 -362 -59 -116 -29 -116 -29 -93 -4 19
21 14 50 -8 50 -7 0 -56 -30 -107 -66 -52 -36 -111 -72 -132 -80 -159 -56
-430 -192 -603 -304 -71 -46 -163 -94 -225 -119 -155 -62 -288 -142 -388 -233
-78 -70 -82 -114 -9 -105 23 2 50 8 60 12 11 4 -29 -49 -87 -119 -250 -298
-408 -614 -423 -846 -16 -245 100 -418 325 -484 89 -26 252 -31 377 -11 195
31 492 147 750 294 50 28 93 51 96 51 4 0 -4 -29 -17 -65 -36 -99 -65 -224
-62 -264 6 -73 68 -39 68 37 0 21 -2 24 -10 12 -8 -13 -10 -13 -10 1 0 20 85
270 105 308 8 16 58 55 122 96 299 190 589 411 873 665 76 68 166 132 240 170
35 17 21 5 -102 -89 -139 -106 -178 -143 -178 -170 0 -17 6 -21 30 -21 39 0
81 21 365 185 266 152 425 239 430 233 2 -2 -69 -60 -158 -128 -221 -171 -277
-224 -277 -261 0 -84 71 -57 770 289 462 229 852 412 1487 697 183 82 335 156
338 163 8 21 -13 52 -35 52 -19 0 -460 -194 -905 -398 -257 -118 -682 -330
-990 -493 -237 -126 -439 -225 -528 -260 -42 -17 -48 -17 -37 -4 22 26 155
135 320 260 221 168 239 187 205 215 -12 10 -48 -5 -197 -83 -101 -52 -281
-149 -401 -216 -121 -67 -221 -120 -223 -118 -3 3 100 83 228 178 167 125 233
180 233 194 0 11 -7 21 -15 23 -9 1 -100 -47 -203 -107 l-187 -109 49 62 c27
34 57 78 67 98 16 34 25 39 168 93 440 167 596 261 596 357 0 52 -20 87 -75
136 -140 123 -478 237 -825 277 -112 13 -336 18 -430 8z m495 -48 c298 -41
571 -133 711 -239 56 -42 94 -93 94 -128 0 -42 -71 -103 -188 -162 -145 -73
-509 -213 -588 -226 -28 -5 -89 -26 -135 -48 -101 -48 -695 -250 -705 -240
-17 17 252 445 395 628 45 57 81 107 81 111 0 32 -50 -8 -262 -209 -134 -127
-281 -263 -328 -303 -162 -140 -367 -295 -377 -285 -10 10 106 186 223 337
128 165 261 306 392 418 66 57 123 110 127 118 6 18 -11 43 -30 43 -7 0 -58
-39 -112 -86 -169 -149 -551 -454 -567 -454 -3 0 -6 24 -6 53 0 29 -9 70 -19
92 -17 38 -65 88 -93 97 -18 6 67 106 224 265 l130 131 146 36 c149 36 308 63
417 70 101 6 364 -4 470 -19z m-1316 -214 c-13 -10 -95 -66 -182 -124 -138
-92 -164 -106 -213 -112 -31 -4 -58 -5 -60 -2 -10 10 181 122 356 209 100 49
140 61 99 29z m-16 -112 c-43 -50 -85 -100 -94 -111 -15 -19 -22 -20 -75 -12
l-59 9 150 102 c83 56 151 102 153 103 2 0 -32 -41 -75 -91z m-156 -167 c10
-6 7 -17 -13 -43 -14 -19 -58 -88 -99 -154 -232 -377 -184 -464 140 -252 39
25 71 44 72 43 1 -1 -14 -43 -33 -94 -27 -73 -33 -100 -28 -132 17 -104 141
-125 386 -64 53 13 101 24 107 24 5 0 -35 -89 -90 -197 -54 -109 -132 -274
-172 -368 l-73 -170 -110 -62 c-585 -331 -1079 -404 -1306 -194 -81 74 -127
208 -114 336 22 221 180 535 400 798 158 188 187 212 396 319 102 52 230 122
285 156 96 58 103 60 170 61 39 0 76 -3 82 -7z m-292 -25 c-45 -31 -297 -169
-300 -165 -3 2 35 36 83 76 85 68 149 98 217 101 19 1 19 1 0 -12z m409 -27
c44 -39 61 -106 45 -180 -12 -57 -32 -75 -213 -184 -118 -72 -141 -79 -131
-43 24 85 229 437 254 437 6 0 26 -14 45 -30z m693 -166 c-35 -55 -98 -158
-141 -231 l-77 -131 -80 -22 c-106 -28 -219 -52 -231 -48 -6 2 16 24 48 48
108 80 231 188 386 339 84 82 154 148 156 146 2 -1 -26 -47 -61 -101z m-1442
63 c-22 -17 -65 -55 -95 -83 -52 -48 -163 -105 -177 -90 -3 3 -4 7 -2 9 2 2
25 20 50 40 53 42 239 157 254 156 6 0 -8 -14 -30 -32z m1028 -39 c-5 -7 -35
-45 -65 -83 -72 -92 -208 -290 -208 -303 0 -6 -5 -14 -11 -18 -16 -10 -3 43
41 159 l37 100 104 78 c107 80 118 88 102 67z m1137 -127 c0 -17 -115 -154
-171 -205 -69 -62 -806 -532 -818 -521 -7 8 102 126 202 218 158 145 337 288
482 387 28 19 104 56 170 81 133 52 135 53 135 40z m-430 -155 c0 -3 -33 -28
-72 -57 -131 -94 -281 -222 -399 -339 -129 -127 -179 -191 -179 -227 0 -19 5
-23 32 -23 40 0 115 42 363 205 110 72 218 141 240 154 l40 23 -26 -24 c-126
-112 -385 -306 -594 -445 -188 -125 -225 -147 -225 -135 0 20 108 255 217 473
l113 226 243 86 c133 47 243 86 245 86 1 1 2 -1 2 -3z"/>
</g>
</svg>
